# xmcd
#
# Track frame offsets: 
#        150
#        21928
#        31398
#        50415
#        65819
#        82835
#        99576
#        123833
#        136914
#        162432
#        172869
#        193885
#        211975
#
# Disc length: 3160 seconds
#
# Revision: 0
# Processed by: cddbd v1.5.2PL0 Copyright (c) Steve Scherf et al.
# Submitted via: ExactAudioCopyFreeDBPlugin 1.0
#
DISCID=ae0c560d
DTITLE=Yonder Mountain String Band - Love. Ain't Love
DYEAR=2017
DGENRE=Bluegrass
TTITLE0=Alison
TTITLE1=Fall Outta Line
TTITLE2=Bad Taste
TTITLE3=Take a Chance on Me
TTITLE4=Chasing My Tail
TTITLE5=Used to It
TTITLE6=Eat In Go Deaf (Eat Out Go Broke)
TTITLE7=Dancing in the Moonlight
TTITLE8=On Your Dime
TTITLE9=Kobe the Dog
TTITLE10=Last of the Railroad Men
TTITLE11=Up for Brinkley's
TTITLE12=Groovin' Away
EXTD=
EXTT0=
EXTT1=
EXTT2=
EXTT3=
EXTT4=
EXTT5=
EXTT6=
EXTT7=
EXTT8=
EXTT9=
EXTT10=
EXTT11=
EXTT12=
PLAYORDER=
